<svg width="19" height="19" viewBox="0 0 19 19" fill="none" xmlns="http://www.w3.org/2000/svg">
<path d="M9.37305 5.13757V7.7004" stroke="#828282" stroke-width="1.14838" stroke-miterlimit="10" stroke-linecap="round"/>
<path d="M9.38835 1.72046C6.55616 1.72046 4.26269 4.01392 4.26269 6.84611V8.46231C4.26269 8.98565 4.0472 9.77066 3.77784 10.217L2.80042 11.8486C2.20012 12.8568 2.61571 13.9805 3.72396 14.3499C7.40274 15.5736 11.3817 15.5736 15.0604 14.3499C16.0994 14.0036 16.5458 12.7876 15.984 11.8486L15.0066 10.217C14.7372 9.77066 14.5217 8.97796 14.5217 8.46231V6.84611C14.514 4.02931 12.2052 1.72046 9.38835 1.72046Z" stroke="#828282" stroke-width="1.14838" stroke-miterlimit="10" stroke-linecap="round"/>
<path d="M11.9362 14.6655C11.9362 16.0739 10.7818 17.2284 9.37338 17.2284C8.67302 17.2284 8.02654 16.9359 7.56477 16.4741C7.103 16.0124 6.81055 15.3659 6.81055 14.6655" stroke="#828282" stroke-width="1.14838" stroke-miterlimit="10"/>
</svg>
