<svg width="15" height="14" viewBox="0 0 15 14" fill="none" xmlns="http://www.w3.org/2000/svg">
<path d="M9.74588 1.33691H5.18629C2.9065 1.33691 1.7666 2.47681 1.7666 4.7566V12.1659C1.7666 12.4794 2.02308 12.7359 2.33655 12.7359H9.74588C12.0257 12.7359 13.1656 11.596 13.1656 9.31619V4.7566C13.1656 2.47681 12.0257 1.33691 9.74588 1.33691Z" stroke="#333333" stroke-width="0.854922" stroke-linecap="round" stroke-linejoin="round"/>
<path d="M7.98518 4.66547L5.02715 7.6235C4.91316 7.73749 4.80487 7.95978 4.78207 8.11936L4.62249 9.24786C4.56549 9.65822 4.85047 9.94319 5.26083 9.8862L6.38931 9.72661C6.5489 9.70382 6.77119 9.59553 6.88518 9.48154L9.84322 6.5235C10.3505 6.01625 10.5955 5.4235 9.84322 4.67117C9.09089 3.91314 8.49813 4.15252 7.98518 4.66547Z" stroke="#333333" stroke-width="0.854922" stroke-miterlimit="10" stroke-linecap="round" stroke-linejoin="round"/>
<path d="M7.56348 5.08716C7.81425 5.98198 8.51529 6.68871 9.41581 6.93949" stroke="#333333" stroke-width="0.854922" stroke-miterlimit="10" stroke-linecap="round" stroke-linejoin="round"/>
</svg>
