<svg width="27" height="26" viewBox="0 0 27 26" fill="none" xmlns="http://www.w3.org/2000/svg">
<rect x="0.842513" y="0.388534" width="24.8646" height="24.8646" rx="3.90729" stroke="#CCC9FF" stroke-width="0.710417"/>
<path d="M15.5914 20.1025H10.9595C7.47137 20.1025 5.97949 18.6107 5.97949 15.1225V15.0302C5.97949 11.8759 7.22272 10.3556 10.0076 10.0928C10.2917 10.0715 10.5617 10.2846 10.5901 10.5759C10.6185 10.8671 10.4054 11.13 10.107 11.1584C7.8763 11.3644 7.04512 12.4158 7.04512 15.0373V15.1296C7.04512 18.021 8.06812 19.044 10.9595 19.044H15.5914C18.4828 19.044 19.5058 18.021 19.5058 15.1296V15.0373C19.5058 12.4016 18.6604 11.3502 16.3871 11.1584C16.0958 11.13 15.8756 10.8742 15.904 10.583C15.9324 10.2917 16.1811 10.0715 16.4795 10.0999C19.3069 10.3414 20.5715 11.8688 20.5715 15.0444V15.1367C20.5715 18.6107 19.0796 20.1025 15.5914 20.1025Z" fill="#141522"/>
<path d="M13.275 15.3996C12.9837 15.3996 12.7422 15.1581 12.7422 14.8668V5.71665C12.7422 5.42538 12.9837 5.18384 13.275 5.18384C13.5663 5.18384 13.8078 5.42538 13.8078 5.71665V14.8668C13.8078 15.1652 13.5663 15.3996 13.275 15.3996Z" fill="#141522"/>
<path d="M13.2752 16.1953C13.1402 16.1953 13.0052 16.1456 12.8987 16.039L10.5188 13.6591C10.3128 13.4531 10.3128 13.1121 10.5188 12.9061C10.7248 12.7001 11.0658 12.7001 11.2718 12.9061L13.2752 14.9095L15.2786 12.9061C15.4846 12.7001 15.8256 12.7001 16.0316 12.9061C16.2376 13.1121 16.2376 13.4531 16.0316 13.6591L13.6517 16.039C13.5451 16.1456 13.4102 16.1953 13.2752 16.1953Z" fill="#141522"/>
</svg>
