<svg width="27" height="26" viewBox="0 0 27 26" fill="none" xmlns="http://www.w3.org/2000/svg">
<rect x="1.1638" y="0.388534" width="24.8646" height="24.8646" rx="3.90729" stroke="#CCC9FF" stroke-width="0.710417"/>
<path d="M15.9127 20.1025H11.2808C7.79266 20.1025 6.30078 18.6107 6.30078 15.1225V15.0302C6.30078 11.8759 7.54401 10.3556 10.3288 10.0928C10.613 10.0715 10.883 10.2846 10.9114 10.5759C10.9398 10.8671 10.7267 11.13 10.4283 11.1584C8.19759 11.3644 7.36641 12.4158 7.36641 15.0373V15.1296C7.36641 18.021 8.38941 19.044 11.2808 19.044H15.9127C18.8041 19.044 19.8271 18.021 19.8271 15.1296V15.0373C19.8271 12.4016 18.9817 11.3502 16.7084 11.1584C16.4171 11.13 16.1969 10.8742 16.2253 10.583C16.2537 10.2917 16.5024 10.0715 16.8007 10.0999C19.6282 10.3414 20.8927 11.8688 20.8927 15.0444V15.1367C20.8927 18.6107 19.4009 20.1025 15.9127 20.1025Z" fill="#141522"/>
<path d="M13.5963 15.4849C13.305 15.4849 13.0635 15.2433 13.0635 14.9521V6.86753C13.0635 6.57626 13.305 6.33472 13.5963 6.33472C13.8876 6.33472 14.1291 6.57626 14.1291 6.86753V14.9521C14.1291 15.2433 13.8876 15.4849 13.5963 15.4849Z" fill="#141522"/>
<path d="M15.9764 8.98452C15.8414 8.98452 15.7064 8.93479 15.5999 8.82822L13.5965 6.82485L11.5931 8.82822C11.3871 9.03425 11.0461 9.03425 10.8401 8.82822C10.634 8.6222 10.634 8.2812 10.8401 8.07518L13.22 5.69529C13.426 5.48927 13.767 5.48927 13.973 5.69529L16.3529 8.07518C16.5589 8.2812 16.5589 8.6222 16.3529 8.82822C16.2534 8.93479 16.1114 8.98452 15.9764 8.98452Z" fill="#141522"/>
</svg>
