<svg width="26" height="26" viewBox="0 0 26 26" fill="none" xmlns="http://www.w3.org/2000/svg">
<rect x="0.484115" y="0.388534" width="24.8646" height="24.8646" rx="3.90729" stroke="#CCC9FF" stroke-width="0.710417"/>
<path d="M13.9174 19.0654L12.9157 19.7119C11.9851 20.2873 10.6921 19.6408 10.6921 18.4899V14.6892C10.6921 14.1848 10.4079 13.5383 10.1167 13.1831L7.38865 10.313C7.02634 9.95073 6.74219 9.31136 6.74219 8.87801V7.22983C6.74219 6.37023 7.38868 5.72375 8.17724 5.72375H17.6542C18.4427 5.72375 19.0892 6.37023 19.0892 7.15879V8.73591C19.0892 9.31135 18.7269 10.0289 18.3717 10.3841" stroke="#141522" stroke-width="1.06562" stroke-miterlimit="10" stroke-linecap="round" stroke-linejoin="round"/>
<path d="M16.5257 12.7427L14.0108 15.2575C13.9114 15.357 13.819 15.5417 13.7977 15.6767L13.6627 16.6357C13.613 16.9838 13.8546 17.2254 14.2027 17.1757L15.1617 17.0407C15.2967 17.0194 15.4885 16.927 15.5809 16.8276L18.0957 14.3127C18.5291 13.8793 18.7351 13.3749 18.0957 12.7355C17.4635 12.1033 16.9591 12.3093 16.5257 12.7427Z" stroke="#141522" stroke-width="1.06562" stroke-miterlimit="10" stroke-linecap="round" stroke-linejoin="round"/>
<path d="M16.1699 13.0979C16.383 13.8652 16.9798 14.4619 17.747 14.675" stroke="#141522" stroke-width="1.06562" stroke-miterlimit="10" stroke-linecap="round" stroke-linejoin="round"/>
</svg>
