<svg width="18" height="18" viewBox="0 0 18 18" fill="none" xmlns="http://www.w3.org/2000/svg">
<path d="M9.91738 15.0654L8.91571 15.7119C7.98506 16.2873 6.6921 15.6408 6.6921 14.4899V10.6892C6.6921 10.1848 6.40794 9.53834 6.11667 9.18313L3.38865 6.31304C3.02634 5.95073 2.74219 5.31136 2.74219 4.87801V3.22983C2.74219 2.37023 3.38868 1.72375 4.17724 1.72375H13.6542C14.4427 1.72375 15.0892 2.37023 15.0892 3.15879V4.73591C15.0892 5.31135 14.7269 6.02888 14.3717 6.38409" stroke="#141522" stroke-width="1.06562" stroke-miterlimit="10" stroke-linecap="round" stroke-linejoin="round"/>
<path d="M12.5257 8.74266L10.0108 11.2575C9.91138 11.357 9.81903 11.5417 9.79772 11.6767L9.66274 12.6357C9.61301 12.9838 9.85456 13.2254 10.2027 13.1757L11.1617 13.0407C11.2967 13.0194 11.4885 12.927 11.5809 12.8276L14.0957 10.3127C14.5291 9.87932 14.7351 9.37492 14.0957 8.73555C13.4635 8.10328 12.9591 8.30931 12.5257 8.74266Z" stroke="#141522" stroke-width="1.06562" stroke-miterlimit="10" stroke-linecap="round" stroke-linejoin="round"/>
<path d="M12.1699 9.0979C12.383 9.86515 12.9798 10.4619 13.747 10.675" stroke="#141522" stroke-width="1.06562" stroke-miterlimit="10" stroke-linecap="round" stroke-linejoin="round"/>
</svg>
