<svg width="26" height="26" viewBox="0 0 26 26" fill="none" xmlns="http://www.w3.org/2000/svg">
<rect x="0.522201" y="0.388534" width="24.8646" height="24.8646" rx="3.90729" stroke="#CCC9FF" stroke-width="0.710417"/>
<path d="M12.9555 14.9521C14.1325 14.9521 15.0867 13.9979 15.0867 12.8208C15.0867 11.6438 14.1325 10.6896 12.9555 10.6896C11.7784 10.6896 10.8242 11.6438 10.8242 12.8208C10.8242 13.9979 11.7784 14.9521 12.9555 14.9521Z" stroke="black" stroke-width="1.06562" stroke-miterlimit="10" stroke-linecap="round" stroke-linejoin="round"/>
<path d="M5.85156 13.446V12.1956C5.85156 11.4568 6.45542 10.8458 7.20135 10.8458C8.48721 10.8458 9.01292 9.9365 8.36644 8.82114C7.99702 8.18177 8.21725 7.35058 8.86373 6.98116L10.0927 6.27785C10.654 5.94395 11.3786 6.14287 11.7125 6.7041L11.7906 6.83908C12.43 7.95443 13.4814 7.95443 14.1279 6.83908L14.2061 6.7041C14.54 6.14287 15.2646 5.94395 15.8258 6.27785L17.0548 6.98116C17.7013 7.35058 17.9215 8.18177 17.5521 8.82114C16.9056 9.9365 17.4314 10.8458 18.7172 10.8458C19.456 10.8458 20.067 11.4497 20.067 12.1956V13.446C20.067 14.1848 19.4631 14.7957 18.7172 14.7957C17.4314 14.7957 16.9056 15.7051 17.5521 16.8204C17.9215 17.4669 17.7013 18.291 17.0548 18.6604L15.8258 19.3637C15.2646 19.6976 14.54 19.4987 14.2061 18.9375L14.1279 18.8025C13.4885 17.6871 12.4371 17.6871 11.7906 18.8025L11.7125 18.9375C11.3786 19.4987 10.654 19.6976 10.0927 19.3637L8.86373 18.6604C8.21725 18.291 7.99702 17.4598 8.36644 16.8204C9.01292 15.7051 8.48721 14.7957 7.20135 14.7957C6.45542 14.7957 5.85156 14.1848 5.85156 13.446Z" stroke="black" stroke-width="1.06562" stroke-miterlimit="10" stroke-linecap="round" stroke-linejoin="round"/>
</svg>
