<svg width="16" height="16" viewBox="0 0 16 16" fill="none" xmlns="http://www.w3.org/2000/svg">
<path d="M13.0513 9.06836H2.76208C1.78526 9.06836 1.39453 9.48514 1.39453 10.5206V13.1515C1.39453 14.1869 1.78526 14.6037 2.76208 14.6037H13.0513C14.0281 14.6037 14.4188 14.1869 14.4188 13.1515V10.5206C14.4188 9.48514 14.0281 9.06836 13.0513 9.06836Z" stroke="white" stroke-width="0.976823" stroke-linecap="round" stroke-linejoin="round"/>
<path d="M13.0513 1.57947H2.76208C1.78526 1.57947 1.39453 1.99625 1.39453 3.03168V5.66259C1.39453 6.69802 1.78526 7.1148 2.76208 7.1148H13.0513C14.0281 7.1148 14.4188 6.69802 14.4188 5.66259V3.03168C14.4188 1.99625 14.0281 1.57947 13.0513 1.57947Z" stroke="white" stroke-width="0.976823" stroke-linecap="round" stroke-linejoin="round"/>
</svg>
