<svg width="11" height="16" viewBox="0 0 11 16" fill="none" xmlns="http://www.w3.org/2000/svg">
<path fill-rule="evenodd" clip-rule="evenodd" d="M0.545898 5.66512C0.545898 2.9633 2.84288 0.8125 5.62054 0.8125C8.3982 0.8125 10.6952 2.9633 10.6952 5.66512C10.6952 7.18829 9.87164 9.07279 8.96949 10.7016C8.05383 12.3549 6.99931 13.8444 6.4338 14.6081C6.34049 14.7357 6.21847 14.8395 6.0776 14.9112C5.93601 14.9833 5.7794 15.0208 5.62054 15.0208C5.46168 15.0208 5.30506 14.9833 5.16348 14.9112C5.02259 14.8395 4.90056 14.7357 4.80725 14.6081C4.24175 13.8441 3.18723 12.354 2.27157 10.7006C1.36947 9.07158 0.545898 7.18721 0.545898 5.66512ZM5.62054 1.82743C3.35528 1.82743 1.56083 3.57078 1.56083 5.66512C1.56083 6.90237 2.25965 8.58404 3.15944 10.2089C4.04325 11.8048 5.06696 13.2528 5.62054 14.0009C6.1741 13.2531 7.19782 11.8057 8.08165 10.2099C8.9814 8.58537 9.68025 6.90351 9.68025 5.66512C9.68025 3.57078 7.8858 1.82743 5.62054 1.82743Z" fill="#4E47E5"/>
<path fill-rule="evenodd" clip-rule="evenodd" d="M5.62068 4.87223C5.06015 4.87223 4.60575 5.32663 4.60575 5.88716C4.60575 6.44768 5.06015 6.90208 5.62068 6.90208C6.1812 6.90208 6.6356 6.44768 6.6356 5.88716C6.6356 5.32663 6.1812 4.87223 5.62068 4.87223ZM3.59082 5.88716C3.59082 4.7661 4.49962 3.8573 5.62068 3.8573C6.74173 3.8573 7.65053 4.7661 7.65053 5.88716C7.65053 7.00821 6.74173 7.91701 5.62068 7.91701C4.49962 7.91701 3.59082 7.00821 3.59082 5.88716Z" fill="#4E47E5"/>
</svg>
