<svg width="17" height="16" viewBox="0 0 17 16" fill="none" xmlns="http://www.w3.org/2000/svg">
<path d="M13.7611 7.63576V4.8616C13.7611 2.2372 13.1489 1.57947 10.6874 1.57947H5.76417C3.30257 1.57947 2.69043 2.2372 2.69043 4.8616V12.1943C2.69043 13.9265 3.64121 14.3368 4.79386 13.0995L4.80036 13.0929C5.33436 12.5264 6.14838 12.572 6.61074 13.1906L7.26847 14.0698" stroke="#828282" stroke-width="0.976823" stroke-linecap="round" stroke-linejoin="round"/>
<path d="M12.2626 14.2129C13.4135 14.2129 14.3465 13.28 14.3465 12.1291C14.3465 10.9782 13.4135 10.0452 12.2626 10.0452C11.1117 10.0452 10.1787 10.9782 10.1787 12.1291C10.1787 13.28 11.1117 14.2129 12.2626 14.2129Z" stroke="#828282" stroke-width="0.976823" stroke-linecap="round" stroke-linejoin="round"/>
<path d="M14.7372 14.6037L14.0859 13.9525" stroke="#828282" stroke-width="0.976823" stroke-linecap="round" stroke-linejoin="round"/>
<path d="M5.62109 4.83545H10.8308" stroke="#828282" stroke-width="0.976823" stroke-linecap="round" stroke-linejoin="round"/>
<path d="M6.27246 7.44031H10.1798" stroke="#828282" stroke-width="0.976823" stroke-linecap="round" stroke-linejoin="round"/>
</svg>
