<svg width="18" height="18" viewBox="0 0 18 18" fill="none" xmlns="http://www.w3.org/2000/svg">
<path d="M7.1612 16.0749H11.4461C15.0169 16.0749 16.4452 14.6541 16.4452 11.102V6.83949C16.4452 3.28741 15.0169 1.86658 11.4461 1.86658H7.1612C3.59042 1.86658 2.16211 3.28741 2.16211 6.83949V11.102C2.16211 14.6541 3.59042 16.0749 7.1612 16.0749Z" stroke="#828282" stroke-width="1.06562" stroke-linecap="round" stroke-linejoin="round"/>
<path d="M11.8525 13.5885V10.8179" stroke="#828282" stroke-width="1.06562" stroke-miterlimit="10" stroke-linecap="round" stroke-linejoin="round"/>
<path d="M11.8525 5.73834V4.35303" stroke="#828282" stroke-width="1.06562" stroke-miterlimit="10" stroke-linecap="round" stroke-linejoin="round"/>
<path d="M11.8529 9.43245C12.8784 9.43245 13.7097 8.60548 13.7097 7.58536C13.7097 6.56525 12.8784 5.73828 11.8529 5.73828C10.8274 5.73828 9.99609 6.56525 9.99609 7.58536C9.99609 8.60548 10.8274 9.43245 11.8529 9.43245Z" stroke="#828282" stroke-width="1.06562" stroke-miterlimit="10" stroke-linecap="round" stroke-linejoin="round"/>
<path d="M6.75391 13.5886V12.2032" stroke="#828282" stroke-width="1.06562" stroke-miterlimit="10" stroke-linecap="round" stroke-linejoin="round"/>
<path d="M6.75391 7.12365V4.35303" stroke="#828282" stroke-width="1.06562" stroke-miterlimit="10" stroke-linecap="round" stroke-linejoin="round"/>
<path d="M6.75329 12.2032C7.77877 12.2032 8.61009 11.3762 8.61009 10.3561C8.61009 9.336 7.77877 8.50903 6.75329 8.50903C5.7278 8.50903 4.89648 9.336 4.89648 10.3561C4.89648 11.3762 5.7278 12.2032 6.75329 12.2032Z" stroke="#828282" stroke-width="1.06562" stroke-miterlimit="10" stroke-linecap="round" stroke-linejoin="round"/>
</svg>
