<svg width="18" height="18" viewBox="0 0 18 18" fill="none" xmlns="http://www.w3.org/2000/svg">
<path d="M4.30458 7.45006H5.73289C7.1612 7.45006 7.87536 6.73964 7.87536 5.31881V3.89797C7.87536 2.47714 7.1612 1.76672 5.73289 1.76672H4.30458C2.87627 1.76672 2.16211 2.47714 2.16211 3.89797V5.31881C2.16211 6.73964 2.87627 7.45006 4.30458 7.45006Z" stroke="#828282" stroke-width="1.06562" stroke-miterlimit="10" stroke-linecap="round" stroke-linejoin="round"/>
<path d="M12.8739 7.45006H14.3022C15.7305 7.45006 16.4447 6.73964 16.4447 5.31881V3.89797C16.4447 2.47714 15.7305 1.76672 14.3022 1.76672H12.8739C11.4456 1.76672 10.7314 2.47714 10.7314 3.89797V5.31881C10.7314 6.73964 11.4456 7.45006 12.8739 7.45006Z" stroke="#828282" stroke-width="1.06562" stroke-miterlimit="10" stroke-linecap="round" stroke-linejoin="round"/>
<path d="M12.8739 15.975H14.3022C15.7305 15.975 16.4447 15.2645 16.4447 13.8437V12.4229C16.4447 11.002 15.7305 10.2916 14.3022 10.2916H12.8739C11.4456 10.2916 10.7314 11.002 10.7314 12.4229V13.8437C10.7314 15.2645 11.4456 15.975 12.8739 15.975Z" stroke="#828282" stroke-width="1.06562" stroke-miterlimit="10" stroke-linecap="round" stroke-linejoin="round"/>
<path d="M4.30458 15.975H5.73289C7.1612 15.975 7.87536 15.2645 7.87536 13.8437V12.4229C7.87536 11.002 7.1612 10.2916 5.73289 10.2916H4.30458C2.87627 10.2916 2.16211 11.002 2.16211 12.4229V13.8437C2.16211 15.2645 2.87627 15.975 4.30458 15.975Z" stroke="#828282" stroke-width="1.06562" stroke-miterlimit="10" stroke-linecap="round" stroke-linejoin="round"/>
</svg>
