<svg width="18" height="18" viewBox="0 0 18 18" fill="none" xmlns="http://www.w3.org/2000/svg">
<path d="M7.27535 7.9679C7.20394 7.9608 7.11824 7.9608 7.03968 7.9679C5.33999 7.91107 3.99023 6.52575 3.99023 4.82075C3.99023 3.08023 5.40426 1.6665 7.16109 1.6665C8.91077 1.6665 10.3319 3.08023 10.3319 4.82075C10.3248 6.52575 8.97504 7.91107 7.27535 7.9679Z" stroke="#828282" stroke-width="1.06562" stroke-linecap="round" stroke-linejoin="round"/>
<path d="M12.4522 3.0874C13.8377 3.0874 14.9518 4.20276 14.9518 5.57386C14.9518 6.91655 13.8805 8.01059 12.5451 8.06032C12.4879 8.05321 12.4236 8.05321 12.3594 8.06032" stroke="#828282" stroke-width="1.06562" stroke-linecap="round" stroke-linejoin="round"/>
<path d="M3.7044 10.5894C1.97614 11.7403 1.97614 13.6158 3.7044 14.7596C5.66832 16.0667 8.88917 16.0667 10.8531 14.7596C12.5814 13.6087 12.5814 11.7332 10.8531 10.5894C8.89631 9.28936 5.67547 9.28936 3.7044 10.5894Z" stroke="#828282" stroke-width="1.06562" stroke-linecap="round" stroke-linejoin="round"/>
<path d="M13.8311 14.454C14.3452 14.3475 14.8309 14.1414 15.2308 13.836C16.3449 13.0048 16.3449 11.6337 15.2308 10.8025C14.838 10.5041 14.3595 10.3052 13.8525 10.1915" stroke="#828282" stroke-width="1.06562" stroke-linecap="round" stroke-linejoin="round"/>
</svg>
