<svg width="52" height="53" viewBox="0 0 52 53" fill="none" xmlns="http://www.w3.org/2000/svg">
<path d="M28.7214 14.1528C29.2275 13.2761 28.9346 12.1593 28.067 11.6584C27.1994 11.1575 26.0858 11.4622 25.5796 12.3389L23.3265 16.2413C22.8204 17.118 23.1134 18.2348 23.9809 18.7357C24.8485 19.2366 25.9621 18.9319 26.4683 18.0552L28.7214 14.1528Z" fill="#4E47E5"/>
<path d="M28.7595 36.6154C29.2656 35.7387 28.9726 34.622 28.1051 34.1211C27.2375 33.6202 26.1239 33.9248 25.6177 34.8015L23.3646 38.7039C22.8585 39.5806 23.1514 40.6974 24.019 41.1983C24.8866 41.6992 26.0002 41.3945 26.5064 40.5178L28.7595 36.6154Z" fill="#4E47E5"/>
<path d="M21.1976 14.7979C21.1093 13.7894 20.2288 13.0427 19.2308 13.13C18.2328 13.2173 17.4954 14.1056 17.5836 15.1141L17.9763 19.6031C18.0645 20.6115 18.9451 21.3583 19.9431 21.271C20.941 21.1837 21.6785 20.2954 21.5903 19.2869L21.1976 14.7979Z" fill="#4E47E5"/>
<path d="M34.056 33.2344C33.9677 32.226 33.0872 31.4792 32.0892 31.5665C31.0912 31.6538 30.3538 32.5421 30.442 33.5506L30.8347 38.0396C30.9229 39.0481 31.8035 39.7948 32.8015 39.7075C33.7994 39.6202 34.5369 38.7319 34.4487 37.7234L34.056 33.2344Z" fill="#4E47E5"/>
<path d="M15.3928 19.6701C14.7421 18.8947 13.5925 18.788 12.8251 19.4319C12.0577 20.0759 11.9631 21.2266 12.6138 22.0021L15.5102 25.4539C16.161 26.2294 17.3106 26.3361 18.078 25.6921C18.8454 25.0482 18.94 23.8975 18.2893 23.122L15.3928 19.6701Z" fill="#4E47E5"/>
<path d="M36.5276 27.395C35.8769 26.6195 34.7273 26.5129 33.9598 27.1568C33.1924 27.8007 33.0978 28.9514 33.7485 29.7269L36.645 33.1788C37.2957 33.9543 38.4453 34.0609 39.2128 33.417C39.9802 32.7731 40.0748 31.6224 39.4241 30.8469L36.5276 27.395Z" fill="#4E47E5"/>
<path d="M13.4634 27.0134C12.4855 26.7514 11.4827 27.3235 11.2234 28.2911C10.9641 29.2588 11.5466 30.2556 12.5244 30.5176L16.877 31.6839C17.8548 31.9459 18.8577 31.3739 19.117 30.4062C19.3763 29.4386 18.7938 28.4417 17.816 28.1797L13.4634 27.0134Z" fill="#4E47E5"/>
<path d="M35.1694 21.1726C34.1916 20.9106 33.1887 21.4826 32.9294 22.4503C32.6702 23.418 33.2527 24.4148 34.2305 24.6768L38.5831 25.8431C39.5609 26.1051 40.5638 25.533 40.8231 24.5654C41.0824 23.5977 40.4998 22.6009 39.522 22.3389L35.1694 21.1726Z" fill="#4E47E5"/>
<path d="M16.0442 34.1044C15.0929 34.4507 14.5995 35.4945 14.9421 36.4359C15.2847 37.3772 16.3337 37.8597 17.2849 37.5135L21.5193 35.9723C22.4706 35.626 22.964 34.5822 22.6214 33.6409C22.2787 32.6995 21.2298 32.217 20.2785 32.5633L16.0442 34.1044Z" fill="#4E47E5"/>
<path d="M30.5119 16.8706C29.5607 17.2168 29.0673 18.2606 29.4099 19.202C29.7525 20.1434 30.8014 20.6258 31.7527 20.2796L35.9871 18.7384C36.9384 18.3922 37.4318 17.3483 37.0891 16.407C36.7465 15.4656 35.6976 14.9831 34.7463 15.3294L30.5119 16.8706Z" fill="#4E47E5"/>
<path d="M28.6901 4.09028C29.1963 3.21358 28.9033 2.09681 28.0357 1.59592C27.1682 1.09502 26.0545 1.39968 25.5483 2.27638L23.2953 6.17879C22.7891 7.0555 23.0821 8.17226 23.9497 8.67316C24.8173 9.17405 25.9309 8.8694 26.4371 7.99269L28.6901 4.09028Z" fill="#817BFF"/>
<path d="M28.7604 47.1801C29.2666 46.3034 28.9736 45.1867 28.106 44.6858C27.2385 44.1849 26.1248 44.4895 25.6187 45.3662L23.3656 49.2686C22.8594 50.1453 23.1524 51.2621 24.02 51.763C24.8876 52.2639 26.0012 51.9592 26.5074 51.0825L28.7604 47.1801Z" fill="#817BFF"/>
<path d="M18.8634 5.09069C18.9516 4.08221 18.2142 3.19389 17.2162 3.10658C16.2182 3.01927 15.3377 3.76602 15.2494 4.7745L14.8567 9.26347C14.7685 10.2719 15.506 11.1603 16.5039 11.2476C17.5019 11.3349 18.3825 10.5881 18.4707 9.57965L18.8634 5.09069Z" fill="#817BFF"/>
<path d="M37.1603 44.1127C37.2485 43.1042 36.511 42.2159 35.5131 42.1286C34.5151 42.0412 33.6345 42.788 33.5463 43.7965L33.1536 48.2854C33.0653 49.2939 33.8028 50.1822 34.8008 50.2695C35.7988 50.3569 36.6793 49.6101 36.7676 48.6016L37.1603 44.1127Z" fill="#817BFF"/>
<path d="M10.4256 10.1228C10.0793 9.1715 9.03553 8.67809 8.09416 9.02072C7.15278 9.36336 6.67033 10.4123 7.01657 11.3636L8.55775 15.5979C8.90399 16.5492 9.9478 17.0426 10.8892 16.7C11.8306 16.3573 12.313 15.3084 11.9668 14.3571L10.4256 10.1228Z" fill="#817BFF"/>
<path d="M43.4754 37.751C43.1292 36.7997 42.0853 36.3063 41.144 36.6489C40.2026 36.9915 39.7201 38.0405 40.0664 38.9917L41.6076 43.2261C41.9538 44.1774 42.9976 44.6708 43.939 44.3282C44.8804 43.9855 45.3628 42.9366 45.0166 41.9853L43.4754 37.751Z" fill="#817BFF"/>
<path d="M4.90043 18.269C4.1846 17.5531 3.03006 17.5471 2.32168 18.2555C1.61331 18.9638 1.61936 20.1184 2.33518 20.8342L5.52149 24.0205C6.23731 24.7363 7.39186 24.7424 8.10023 24.034C8.8086 23.3256 8.80256 22.1711 8.08673 21.4553L4.90043 18.269Z" fill="#817BFF"/>
<path d="M46.543 29.3283C45.8272 28.6125 44.6726 28.6064 43.9643 29.3148C43.2559 30.0232 43.2619 31.1777 43.9778 31.8935L47.1641 35.0798C47.8799 35.7957 49.0344 35.8017 49.7428 35.0933C50.4512 34.385 50.4451 33.2304 49.7293 32.5146L46.543 29.3283Z" fill="#817BFF"/>
<path d="M3.30796 27.9935C2.35667 27.6473 1.30775 28.1298 0.965117 29.0711C0.622485 30.0125 1.11589 31.0563 2.06718 31.4026L6.30153 32.9437C7.25282 33.29 8.30174 32.8075 8.64437 31.8661C8.987 30.9248 8.4936 29.881 7.54231 29.5347L3.30796 27.9935Z" fill="#817BFF"/>
<path d="M45.7318 20.443C44.7805 20.0968 43.7316 20.5792 43.3889 21.5206C43.0463 22.462 43.5397 23.5058 44.491 23.852L48.7254 25.3932C49.6766 25.7394 50.7256 25.257 51.0682 24.3156C51.4108 23.3742 50.9174 22.3304 49.9661 21.9842L45.7318 20.443Z" fill="#817BFF"/>
<path d="M5.98249 37.4426C4.97401 37.5308 4.22725 38.4113 4.31456 39.4093C4.40188 40.4073 5.29019 41.1448 6.29867 41.0566L10.7876 40.6638C11.7961 40.5756 12.5429 39.695 12.4556 38.6971C12.3682 37.6991 11.4799 36.9616 10.4715 37.0498L5.98249 37.4426Z" fill="#817BFF"/>
<path d="M41.2686 12.6967C40.2601 12.7849 39.5134 13.6655 39.6007 14.6635C39.688 15.6614 40.5763 16.3989 41.5848 16.3107L46.0738 15.918C47.0823 15.8297 47.829 14.9492 47.7417 13.9512C47.6544 12.9532 46.7661 12.2157 45.7576 12.304L41.2686 12.6967Z" fill="#817BFF"/>
<path d="M12.4288 44.9288C11.5521 45.435 11.2474 46.5486 11.7483 47.4162C12.2492 48.2838 13.366 48.5767 14.2427 48.0706L18.1451 45.8175C19.0218 45.3113 19.3265 44.1977 18.8256 43.3301C18.3247 42.4626 17.2079 42.1696 16.3312 42.6757L12.4288 44.9288Z" fill="#817BFF"/>
<path d="M33.9102 7.55941C33.0335 8.06558 32.7289 9.17922 33.2298 10.0468C33.7307 10.9144 34.8474 11.2073 35.7241 10.7012L39.6265 8.44812C40.5032 7.94196 40.8079 6.82832 40.307 5.96075C39.8061 5.09317 38.6893 4.80019 37.8126 5.30636L33.9102 7.55941Z" fill="#817BFF"/>
</svg>
