<svg width="77" height="48" viewBox="0 0 77 48" fill="none" xmlns="http://www.w3.org/2000/svg">
<path d="M58.887 44.1857V36.6151H60.0502V44.1857H58.887ZM59.4784 35.3533C59.2517 35.3533 59.0562 35.2761 58.8919 35.1217C58.7309 34.9672 58.6504 34.7816 58.6504 34.5647C58.6504 34.3479 58.7309 34.1622 58.8919 34.0078C59.0562 33.8533 59.2517 33.7761 59.4784 33.7761C59.7051 33.7761 59.899 33.8533 60.06 34.0078C60.2243 34.1622 60.3065 34.3479 60.3065 34.5647C60.3065 34.7816 60.2243 34.9672 60.06 35.1217C59.899 35.2761 59.7051 35.3533 59.4784 35.3533Z" fill="black"/>
<path d="M53.7227 44.1855V36.6149H54.8464V37.7583H54.9253C55.0633 37.3838 55.313 37.0798 55.6744 36.8465C56.0359 36.6132 56.4433 36.4966 56.8968 36.4966C56.9822 36.4966 57.089 36.4982 57.2172 36.5015C57.3453 36.5048 57.4422 36.5097 57.508 36.5163V37.6992C57.4685 37.6893 57.3782 37.6746 57.2369 37.6548C57.0989 37.6318 56.9526 37.6203 56.7982 37.6203C56.4302 37.6203 56.1016 37.6976 55.8125 37.852C55.5266 38.0031 55.2999 38.2134 55.1323 38.4829C54.968 38.749 54.8858 39.053 54.8858 39.3947V44.1855H53.7227Z" fill="black"/>
<path d="M48.819 44.343C48.0896 44.343 47.4603 44.182 46.9313 43.86C46.4056 43.5347 45.9998 43.0812 45.7139 42.4996C45.4313 41.9148 45.29 41.2346 45.29 40.4591C45.29 39.6837 45.4313 39.0002 45.7139 38.4088C45.9998 37.814 46.3974 37.3507 46.9067 37.0188C47.4193 36.6837 48.0173 36.5161 48.7007 36.5161C49.095 36.5161 49.4844 36.5818 49.8689 36.7133C50.2533 36.8447 50.6033 37.0583 50.9187 37.354C51.2341 37.6464 51.4855 38.0342 51.6728 38.5172C51.8601 39.0002 51.9537 39.5949 51.9537 40.3014V40.7943H46.1181V39.7888H50.7708C50.7708 39.3617 50.6854 38.9805 50.5145 38.6453C50.347 38.3102 50.1071 38.0457 49.7949 37.8518C49.4861 37.6579 49.1213 37.561 48.7007 37.561C48.2374 37.561 47.8366 37.676 47.4981 37.906C47.163 38.1328 46.905 38.4285 46.7243 38.7932C46.5436 39.1579 46.4532 39.5489 46.4532 39.9663V40.6366C46.4532 41.2083 46.5518 41.693 46.749 42.0906C46.9494 42.4849 47.227 42.7855 47.5819 42.9925C47.9368 43.1962 48.3492 43.2981 48.819 43.2981C49.1246 43.2981 49.4006 43.2554 49.6471 43.17C49.8968 43.0812 50.112 42.9498 50.2927 42.7756C50.4735 42.5982 50.6131 42.3781 50.7117 42.1152L51.8354 42.4306C51.7172 42.8118 51.5184 43.147 51.2391 43.4361C50.9598 43.722 50.6148 43.9454 50.204 44.1064C49.7933 44.2641 49.3316 44.343 48.819 44.343Z" fill="black"/>
<path d="M43.976 36.6151V37.6008H40.0527V36.6151H43.976ZM41.1962 34.8013H42.3594V42.017C42.3594 42.3456 42.407 42.592 42.5023 42.7563C42.6009 42.9173 42.7258 43.0257 42.8769 43.0816C43.0314 43.1342 43.194 43.1605 43.3649 43.1605C43.493 43.1605 43.5982 43.1539 43.6803 43.1407C43.7625 43.1243 43.8282 43.1112 43.8775 43.1013L44.114 44.1462C44.0352 44.1758 43.9251 44.2054 43.7838 44.2349C43.6425 44.2678 43.4634 44.2842 43.2466 44.2842C42.918 44.2842 42.596 44.2136 42.2805 44.0723C41.9684 43.931 41.7088 43.7158 41.5018 43.4266C41.2981 43.1375 41.1962 42.7727 41.1962 42.3324V34.8013Z" fill="black"/>
<path d="M38.7953 38.3102L37.7504 38.6059C37.6847 38.4318 37.5878 38.2625 37.4596 38.0982C37.3348 37.9307 37.1639 37.7927 36.947 37.6842C36.7302 37.5758 36.4525 37.5216 36.1141 37.5216C35.6508 37.5216 35.2647 37.6284 34.9558 37.842C34.6502 38.0522 34.4974 38.32 34.4974 38.6453C34.4974 38.9345 34.6026 39.1629 34.8129 39.3304C35.0232 39.498 35.3517 39.6377 35.7986 39.7494L36.9224 40.0254C37.5993 40.1897 38.1036 40.4411 38.4355 40.7795C38.7674 41.1147 38.9333 41.5467 38.9333 42.0758C38.9333 42.5095 38.8085 42.8972 38.5587 43.239C38.3123 43.5807 37.9673 43.8501 37.5237 44.0473C37.0801 44.2444 36.5642 44.343 35.9761 44.343C35.2039 44.343 34.5648 44.1754 34.0588 43.8403C33.5527 43.5051 33.2324 43.0155 33.0977 42.3715L34.2017 42.0955C34.3068 42.5029 34.5056 42.8085 34.7981 43.0122C35.0938 43.216 35.4799 43.3178 35.9563 43.3178C36.4985 43.3178 36.929 43.2028 37.2477 42.9728C37.5697 42.7395 37.7307 42.4602 37.7307 42.1349C37.7307 41.872 37.6387 41.6519 37.4547 41.4745C37.2707 41.2937 36.9881 41.159 36.6069 41.0703L35.3452 40.7746C34.6519 40.6103 34.1426 40.3556 33.8173 40.0106C33.4952 39.6623 33.3342 39.2269 33.3342 38.7045C33.3342 38.2773 33.4542 37.8995 33.694 37.5709C33.9372 37.2423 34.2674 36.9843 34.6847 36.7971C35.1053 36.6098 35.5818 36.5161 36.1141 36.5161C36.8632 36.5161 37.4514 36.6804 37.8786 37.009C38.309 37.3376 38.6146 37.7713 38.7953 38.3102Z" fill="black"/>
<path d="M28.528 44.343C27.7986 44.343 27.1693 44.182 26.6403 43.86C26.1146 43.5347 25.7088 43.0812 25.4229 42.4996C25.1403 41.9148 24.999 41.2346 24.999 40.4591C24.999 39.6837 25.1403 39.0002 25.4229 38.4088C25.7088 37.814 26.1064 37.3507 26.6157 37.0188C27.1283 36.6837 27.7263 36.5161 28.4097 36.5161C28.804 36.5161 29.1934 36.5818 29.5778 36.7133C29.9623 36.8447 30.3122 37.0583 30.6277 37.354C30.9431 37.6464 31.1945 38.0342 31.3818 38.5172C31.5691 39.0002 31.6627 39.5949 31.6627 40.3014V40.7943H25.8271V39.7888H30.4798C30.4798 39.3617 30.3944 38.9805 30.2235 38.6453C30.0559 38.3102 29.8161 38.0457 29.5039 37.8518C29.195 37.6579 28.8303 37.561 28.4097 37.561C27.9464 37.561 27.5456 37.676 27.2071 37.906C26.872 38.1328 26.614 38.4285 26.4333 38.7932C26.2526 39.1579 26.1622 39.5489 26.1622 39.9663V40.6366C26.1622 41.2083 26.2608 41.693 26.4579 42.0906C26.6584 42.4849 26.936 42.7855 27.2909 42.9925C27.6458 43.1962 28.0581 43.2981 28.528 43.2981C28.8336 43.2981 29.1096 43.2554 29.3561 43.17C29.6058 43.0812 29.821 42.9498 30.0017 42.7756C30.1824 42.5982 30.3221 42.3781 30.4207 42.1152L31.5444 42.4306C31.4261 42.8118 31.2273 43.147 30.948 43.4361C30.6687 43.722 30.3237 43.9454 29.913 44.1064C29.5023 44.2641 29.0406 44.343 28.528 44.343Z" fill="black"/>
<path d="M18.6473 47.0243C18.4501 47.0243 18.2743 47.0079 18.1199 46.975C17.9655 46.9454 17.8587 46.9159 17.7995 46.8863L18.0952 45.8611C18.3778 45.9334 18.6276 45.9597 18.8444 45.94C19.0613 45.9203 19.2535 45.8233 19.4211 45.6492C19.5919 45.4783 19.748 45.2007 19.8893 44.8162L20.1062 44.2248L17.3066 36.6147H18.5684L20.6582 42.6476H20.7371L22.8269 36.6147H24.0886L20.8751 45.2894C20.7305 45.6804 20.5514 46.0041 20.3378 46.2603C20.1243 46.5199 19.8762 46.7122 19.5936 46.837C19.3143 46.9619 18.9989 47.0243 18.6473 47.0243Z" fill="black"/>
<path d="M13.2263 44.343C12.4968 44.343 11.8676 44.182 11.3385 43.86C10.8128 43.5347 10.407 43.0812 10.1211 42.4996C9.83856 41.9148 9.69727 41.2346 9.69727 40.4591C9.69727 39.6837 9.83856 39.0002 10.1211 38.4088C10.407 37.814 10.8046 37.3507 11.3139 37.0188C11.8265 36.6837 12.4245 36.5161 13.108 36.5161C13.5023 36.5161 13.8916 36.5818 14.2761 36.7133C14.6605 36.8447 15.0105 37.0583 15.3259 37.354C15.6414 37.6464 15.8927 38.0342 16.08 38.5172C16.2673 39.0002 16.361 39.5949 16.361 40.3014V40.7943H10.5253V39.7888H15.1781C15.1781 39.3617 15.0926 38.9805 14.9218 38.6453C14.7542 38.3102 14.5143 38.0457 14.2022 37.8518C13.8933 37.6579 13.5286 37.561 13.108 37.561C12.6447 37.561 12.2438 37.676 11.9054 37.906C11.5702 38.1328 11.3123 38.4285 11.1315 38.7932C10.9508 39.1579 10.8605 39.5489 10.8605 39.9663V40.6366C10.8605 41.2083 10.959 41.693 11.1562 42.0906C11.3566 42.4849 11.6343 42.7855 11.9891 42.9925C12.344 43.1962 12.7564 43.2981 13.2263 43.2981C13.5318 43.2981 13.8079 43.2554 14.0543 43.17C14.304 43.0812 14.5192 42.9498 14.7 42.7756C14.8807 42.5982 15.0203 42.3781 15.1189 42.1152L16.2427 42.4306C16.1244 42.8118 15.9256 43.147 15.6463 43.4361C15.367 43.722 15.022 43.9454 14.6112 44.1064C14.2005 44.2641 13.7389 44.343 13.2263 44.343Z" fill="black"/>
<path d="M1.41211 44.1857V34.0916H4.82282C5.61142 34.0916 6.25873 34.2263 6.76475 34.4957C7.27077 34.7619 7.64536 35.1282 7.88851 35.5948C8.13166 36.0614 8.25324 36.5921 8.25324 37.1868C8.25324 37.7816 8.13166 38.3089 7.88851 38.769C7.64536 39.229 7.27242 39.5904 6.76968 39.8533C6.26695 40.1129 5.62456 40.2427 4.84253 40.2427H2.08242V39.1386H4.8031C5.34198 39.1386 5.77571 39.0598 6.1043 38.902C6.43617 38.7443 6.67603 38.5209 6.8239 38.2317C6.97505 37.9393 7.05062 37.591 7.05062 37.1868C7.05062 36.7827 6.97505 36.4294 6.8239 36.1271C6.67275 35.8248 6.43124 35.5915 6.09937 35.4272C5.7675 35.2597 5.32884 35.1759 4.78339 35.1759H2.63444V44.1857H1.41211ZM6.16344 39.6512L8.64754 44.1857H7.22806L4.78339 39.6512H6.16344Z" fill="black"/>
<path d="M76.3442 19.9595V20.9453H72.4209V19.9595H76.3442ZM73.5644 18.1458H74.7276V25.3615C74.7276 25.6901 74.7752 25.9365 74.8705 26.1008C74.9691 26.2618 75.0939 26.3702 75.2451 26.4261C75.3995 26.4787 75.5622 26.5049 75.733 26.5049C75.8612 26.5049 75.9663 26.4984 76.0485 26.4852C76.1306 26.4688 76.1963 26.4557 76.2456 26.4458L76.4822 27.4907C76.4033 27.5203 76.2933 27.5498 76.152 27.5794C76.0107 27.6123 75.8316 27.6287 75.6147 27.6287C75.2862 27.6287 74.9641 27.5581 74.6487 27.4168C74.3365 27.2755 74.077 27.0603 73.87 26.7711C73.6662 26.4819 73.5644 26.1172 73.5644 25.6769V18.1458Z" fill="black"/>
<path d="M67.7529 19.8018C68.4823 19.8018 69.1099 19.9644 69.6356 20.2897C70.1647 20.6117 70.5705 21.0652 70.8531 21.65C71.1389 22.2316 71.2819 22.9102 71.2819 23.6856C71.2819 24.4611 71.1389 25.1462 70.8531 25.7409C70.5705 26.3324 70.1729 26.7957 69.6603 27.1308C69.151 27.4627 68.5546 27.6286 67.8712 27.6286C67.4768 27.6286 67.0875 27.5629 66.703 27.4315C66.3186 27.3001 65.9686 27.0881 65.6532 26.7957C65.3378 26.5 65.0864 26.1106 64.8991 25.6276C64.7118 25.1413 64.6182 24.5465 64.6182 23.8433V23.3505H70.4538V24.3559H65.8011C65.8011 24.7831 65.8849 25.1643 66.0524 25.4994C66.2233 25.8346 66.4632 26.0991 66.772 26.2929C67.0842 26.4868 67.4506 26.5837 67.8712 26.5837C68.3377 26.5837 68.7386 26.4704 69.0738 26.2437C69.4089 26.0136 69.6669 25.7163 69.8476 25.3516C70.0283 24.9835 70.1187 24.5925 70.1187 24.1785V23.5082C70.1187 22.9332 70.0185 22.4485 69.818 22.0542C69.6209 21.6599 69.3449 21.3609 68.99 21.1572C68.6351 20.9502 68.2227 20.8467 67.7529 20.8467C67.4506 20.8467 67.1745 20.891 66.9248 20.9797C66.6751 21.0652 66.4599 21.1966 66.2792 21.374C66.0984 21.5482 65.9588 21.7667 65.8602 22.0296L64.7365 21.7141C64.8547 21.333 65.0535 20.9994 65.3328 20.7136C65.6121 20.4244 65.9571 20.201 66.3679 20.0433C66.7786 19.8823 67.2403 19.8018 67.7529 19.8018Z" fill="black"/>
<path d="M58.2674 30.369C58.0702 30.369 57.8944 30.3526 57.74 30.3197C57.5856 30.2902 57.4788 30.2606 57.4196 30.231L57.7154 29.2058C57.9979 29.2781 58.2477 29.3044 58.4645 29.2847C58.6814 29.265 58.8736 29.1681 59.0412 28.9939C59.2121 28.823 59.3681 28.5454 59.5094 28.1609L59.7263 27.5695L56.9268 19.9595H58.1885L60.2783 25.9923H60.3572L62.447 19.9595H63.7087L60.4952 28.6341C60.3506 29.0251 60.1715 29.3488 59.9579 29.6051C59.7444 29.8647 59.4963 30.0569 59.2137 30.1817C58.9344 30.3066 58.619 30.369 58.2674 30.369Z" fill="black"/>
<path d="M50.5408 30.369C50.3437 30.369 50.1679 30.3526 50.0134 30.3197C49.859 30.2902 49.7522 30.2606 49.6931 30.231L49.9888 29.2058C50.2714 29.2781 50.5211 29.3044 50.738 29.2847C50.9548 29.265 51.1471 29.1681 51.3146 28.9939C51.4855 28.823 51.6416 28.5454 51.7829 28.1609L51.9997 27.5695L49.2002 19.9595H50.462L52.5518 25.9923H52.6306L54.7204 19.9595H55.9822L52.7686 28.6341C52.624 29.0251 52.445 29.3488 52.2314 29.6051C52.0178 29.8647 51.7697 30.0569 51.4871 30.1817C51.2078 30.3066 50.8924 30.369 50.5408 30.369Z" fill="black"/>
<path d="M46.4993 27.5299V19.9593H47.6625V27.5299H46.4993ZM47.0907 18.6976C46.864 18.6976 46.6685 18.6203 46.5042 18.4659C46.3432 18.3115 46.2627 18.1258 46.2627 17.909C46.2627 17.6921 46.3432 17.5064 46.5042 17.352C46.6685 17.1976 46.864 17.1204 47.0907 17.1204C47.3174 17.1204 47.5113 17.1976 47.6723 17.352C47.8366 17.5064 47.9188 17.6921 47.9188 17.909C47.9188 18.1258 47.8366 18.3115 47.6723 18.4659C47.5113 18.6203 47.3174 18.6976 47.0907 18.6976Z" fill="black"/>
<path d="M39.5431 22.9761V27.5302H38.3799V19.9597H39.5036V21.1426H39.6022C39.7797 20.7581 40.0491 20.4493 40.4105 20.216C40.772 19.9794 41.2386 19.8611 41.8103 19.8611C42.3229 19.8611 42.7714 19.9662 43.1559 20.1765C43.5403 20.3835 43.8393 20.699 44.0529 21.1228C44.2665 21.5434 44.3733 22.0757 44.3733 22.7198V27.5302H43.2101V22.7986C43.2101 22.2039 43.0556 21.7406 42.7468 21.4087C42.4379 21.0736 42.014 20.906 41.4751 20.906C41.1038 20.906 40.772 20.9865 40.4795 21.1475C40.1904 21.3085 39.962 21.5434 39.7944 21.8523C39.6269 22.1612 39.5431 22.5358 39.5431 22.9761Z" fill="black"/>
<path d="M33.081 19.8018C33.8104 19.8018 34.438 19.9644 34.9638 20.2897C35.4928 20.6117 35.8986 21.0652 36.1812 21.65C36.467 22.2316 36.61 22.9102 36.61 23.6856C36.61 24.4611 36.467 25.1462 36.1812 25.7409C35.8986 26.3324 35.501 26.7957 34.9884 27.1308C34.4791 27.4627 33.8827 27.6286 33.1993 27.6286C32.805 27.6286 32.4156 27.5629 32.0312 27.4315C31.6467 27.3001 31.2968 27.0881 30.9813 26.7957C30.6659 26.5 30.4145 26.1106 30.2272 25.6276C30.0399 25.1413 29.9463 24.5465 29.9463 23.8433V23.3505H35.782V24.3559H31.1292C31.1292 24.7831 31.213 25.1643 31.3806 25.4994C31.5514 25.8346 31.7913 26.0991 32.1002 26.2929C32.4123 26.4868 32.7787 26.5837 33.1993 26.5837C33.6659 26.5837 34.0667 26.4704 34.4019 26.2437C34.7371 26.0136 34.995 25.7163 35.1757 25.3516C35.3564 24.9835 35.4468 24.5925 35.4468 24.1785V23.5082C35.4468 22.9332 35.3466 22.4485 35.1461 22.0542C34.949 21.6599 34.673 21.3609 34.3181 21.1572C33.9632 20.9502 33.5509 20.8467 33.081 20.8467C32.7787 20.8467 32.5027 20.891 32.253 20.9797C32.0032 21.0652 31.788 21.1966 31.6073 21.374C31.4266 21.5482 31.2869 21.7667 31.1883 22.0296L30.0646 21.7141C30.1829 21.333 30.3817 20.9994 30.661 20.7136C30.9403 20.4244 31.2853 20.201 31.696 20.0433C32.1067 19.8823 32.5684 19.8018 33.081 19.8018Z" fill="black"/>
<path d="M24.5397 27.6879C23.9088 27.6879 23.3519 27.5285 22.8689 27.2098C22.3859 26.8878 22.008 26.4343 21.7353 25.8494C21.4625 25.2613 21.3262 24.5663 21.3262 23.7646C21.3262 22.9694 21.4625 22.2794 21.7353 21.6945C22.008 21.1096 22.3875 20.6578 22.8738 20.3391C23.3601 20.0204 23.922 19.861 24.5594 19.861C25.0523 19.861 25.4417 19.9431 25.7276 20.1074C26.0167 20.2684 26.2369 20.4524 26.388 20.6594C26.5425 20.8632 26.6624 21.0308 26.7478 21.1622H26.8464V17.436H28.0096V27.5302H26.8858V26.367H26.7478C26.6624 26.505 26.5408 26.6791 26.3831 26.8894C26.2254 27.0964 26.0003 27.2821 25.7078 27.4464C25.4154 27.6074 25.026 27.6879 24.5397 27.6879ZM24.6974 26.643C25.164 26.643 25.5583 26.5214 25.8804 26.2782C26.2024 26.0318 26.4472 25.6917 26.6147 25.258C26.7823 24.821 26.8661 24.3166 26.8661 23.7449C26.8661 23.1797 26.784 22.6852 26.6197 22.2613C26.4554 21.8341 26.2122 21.5023 25.8902 21.2657C25.5682 21.0258 25.1706 20.9059 24.6974 20.9059C24.2046 20.9059 23.7938 21.0324 23.4653 21.2854C23.14 21.5351 22.8952 21.8752 22.7309 22.3057C22.5699 22.7328 22.4894 23.2126 22.4894 23.7449C22.4894 24.2837 22.5715 24.7733 22.7358 25.2136C22.9034 25.6506 23.1498 25.9989 23.4751 26.2585C23.8037 26.5148 24.2111 26.643 24.6974 26.643Z" fill="black"/>
<path d="M16.3827 19.8018C17.1122 19.8018 17.7398 19.9644 18.2655 20.2897C18.7946 20.6117 19.2004 21.0652 19.4829 21.65C19.7688 22.2316 19.9117 22.9102 19.9117 23.6856C19.9117 24.4611 19.7688 25.1462 19.4829 25.7409C19.2004 26.3324 18.8028 26.7957 18.2902 27.1308C17.7809 27.4627 17.1845 27.6286 16.501 27.6286C16.1067 27.6286 15.7174 27.5629 15.3329 27.4315C14.9485 27.3001 14.5985 27.0881 14.2831 26.7957C13.9676 26.5 13.7163 26.1106 13.529 25.6276C13.3417 25.1413 13.248 24.5465 13.248 23.8433V23.3505H19.0837V24.3559H14.431C14.431 24.7831 14.5147 25.1643 14.6823 25.4994C14.8532 25.8346 15.093 26.0991 15.4019 26.2929C15.7141 26.4868 16.0804 26.5837 16.501 26.5837C16.9676 26.5837 17.3685 26.4704 17.7037 26.2437C18.0388 26.0136 18.2967 25.7163 18.4775 25.3516C18.6582 24.9835 18.7486 24.5925 18.7486 24.1785V23.5082C18.7486 22.9332 18.6483 22.4485 18.4479 22.0542C18.2507 21.6599 17.9747 21.3609 17.6199 21.1572C17.265 20.9502 16.8526 20.8467 16.3827 20.8467C16.0804 20.8467 15.8044 20.891 15.5547 20.9797C15.305 21.0652 15.0898 21.1966 14.909 21.374C14.7283 21.5482 14.5887 21.7667 14.4901 22.0296L13.3663 21.7141C13.4846 21.333 13.6834 20.9994 13.9627 20.7136C14.242 20.4244 14.587 20.201 14.9978 20.0433C15.4085 19.8823 15.8702 19.8018 16.3827 19.8018Z" fill="black"/>
<path d="M1.41211 17.436H2.87102L6.30145 25.8149H6.41974L9.85016 17.436H11.3091V27.5302H10.1656V19.861H10.067L6.91261 27.5302H5.80857L2.65416 19.861H2.55558V27.5302H1.41211V17.436Z" fill="black"/>
<path d="M32.1022 11.0324C31.4713 11.0324 30.9144 10.873 30.4314 10.5543C29.9484 10.2323 29.5705 9.77881 29.2978 9.19392C29.025 8.60576 28.8887 7.9108 28.8887 7.10906C28.8887 6.31388 29.025 5.62385 29.2978 5.03897C29.5705 4.45409 29.95 4.00229 30.4363 3.68356C30.9226 3.36484 31.4845 3.20547 32.1219 3.20547C32.6148 3.20547 33.0042 3.28762 33.2901 3.45191C33.5792 3.61292 33.7994 3.79692 33.9505 4.00393C34.105 4.20765 34.2249 4.37523 34.3103 4.50667H34.4089V0.780518H35.5721V10.8746H34.4483V9.71145H34.3103C34.2249 9.84945 34.1033 10.0236 33.9456 10.2339C33.7879 10.4409 33.5628 10.6266 33.2703 10.7908C32.9779 10.9519 32.5885 11.0324 32.1022 11.0324ZM32.2599 9.98746C32.7265 9.98746 33.1208 9.86588 33.4429 9.62273C33.7649 9.37629 34.0097 9.03621 34.1772 8.60247C34.3448 8.16546 34.4286 7.66108 34.4286 7.08934C34.4286 6.52418 34.3465 6.02966 34.1822 5.60578C34.0179 5.17862 33.7747 4.84675 33.4527 4.61017C33.1307 4.3703 32.7331 4.25037 32.2599 4.25037C31.7671 4.25037 31.3563 4.37688 31.0278 4.62989C30.7025 4.87961 30.4577 5.2197 30.2934 5.65014C30.1324 6.0773 30.0519 6.55703 30.0519 7.08934C30.0519 7.62822 30.134 8.11781 30.2983 8.55811C30.4659 8.99513 30.7123 9.34343 31.0376 9.60301C31.3662 9.85931 31.7736 9.98746 32.2599 9.98746Z" fill="black"/>
<path d="M25.9514 10.8746V3.30406H27.1146V10.8746H25.9514ZM26.5429 2.04229C26.3162 2.04229 26.1206 1.96508 25.9564 1.81064C25.7953 1.65621 25.7148 1.47056 25.7148 1.25369C25.7148 1.03683 25.7953 0.851175 25.9564 0.696739C26.1206 0.542305 26.3162 0.465088 26.5429 0.465088C26.7696 0.465088 26.9635 0.542305 27.1245 0.696739C27.2888 0.851175 27.3709 1.03683 27.3709 1.25369C27.3709 1.47056 27.2888 1.65621 27.1245 1.81064C26.9635 1.96508 26.7696 2.04229 26.5429 2.04229Z" fill="black"/>
<path d="M18.9132 6.32045V10.8746H17.75V0.780518H18.9132V4.48695H19.0118C19.1892 4.09594 19.4554 3.78542 19.8102 3.55541C20.1684 3.32212 20.6448 3.20547 21.2396 3.20547C21.7554 3.20547 22.2073 3.30898 22.595 3.51598C22.9827 3.71971 23.2834 4.03351 23.4969 4.45738C23.7138 4.87797 23.8222 5.41356 23.8222 6.06416V10.8746H22.6591V6.14302C22.6591 5.54171 22.503 5.07676 22.1908 4.74818C21.882 4.41631 21.4531 4.25037 20.9044 4.25037C20.5233 4.25037 20.1815 4.33087 19.8792 4.49188C19.5802 4.65289 19.3436 4.88782 19.1695 5.19669C18.9986 5.50556 18.9132 5.88015 18.9132 6.32045Z" fill="black"/>
<path d="M12.1569 11.0524C11.6772 11.0524 11.2418 10.962 10.8508 10.7813C10.4598 10.5973 10.1492 10.3328 9.91923 9.9878C9.68922 9.6395 9.57422 9.21891 9.57422 8.72603C9.57422 8.2923 9.65965 7.94071 9.83051 7.67127C10.0014 7.39855 10.2297 7.18497 10.5156 7.03053C10.8015 6.8761 11.1169 6.7611 11.4619 6.68552C11.8102 6.60666 12.1602 6.54423 12.5118 6.49823C12.9718 6.43908 13.3447 6.39472 13.6306 6.36515C13.9198 6.33229 14.13 6.27808 14.2615 6.2025C14.3962 6.12693 14.4636 5.99549 14.4636 5.8082V5.76877C14.4636 5.28246 14.3305 4.90459 14.0643 4.63515C13.8015 4.36571 13.4022 4.23099 12.8666 4.23099C12.3113 4.23099 11.876 4.35257 11.5605 4.59572C11.2451 4.83888 11.0233 5.09846 10.8951 5.37447L9.79108 4.98017C9.98824 4.52015 10.2511 4.16199 10.5797 3.9057C10.9116 3.64611 11.273 3.46539 11.664 3.36353C12.0583 3.25838 12.446 3.20581 12.8272 3.20581C13.0704 3.20581 13.3497 3.23538 13.6651 3.29453C13.9838 3.35039 14.2911 3.46703 14.5868 3.64447C14.8858 3.82191 15.1339 4.0897 15.331 4.44786C15.5282 4.80602 15.6267 5.28575 15.6267 5.88706V10.875H14.4636V9.84979H14.4044C14.3256 10.0141 14.1941 10.1899 14.0101 10.3772C13.8261 10.5645 13.5813 10.7238 13.2757 10.8553C12.9701 10.9867 12.5972 11.0524 12.1569 11.0524ZM12.3343 10.0075C12.7943 10.0075 13.1821 9.91715 13.4975 9.73643C13.8162 9.55571 14.0561 9.32241 14.2171 9.03654C14.3814 8.75068 14.4636 8.45002 14.4636 8.13458V7.06996C14.4143 7.12911 14.3058 7.18333 14.1383 7.23261C13.974 7.27862 13.7834 7.31969 13.5665 7.35583C13.3529 7.38869 13.1443 7.41826 12.9406 7.44455C12.7401 7.46755 12.5775 7.48727 12.4526 7.5037C12.1503 7.54313 11.8677 7.6072 11.6049 7.69592C11.3453 7.78135 11.135 7.91114 10.974 8.08529C10.8163 8.25616 10.7374 8.48945 10.7374 8.78518C10.7374 9.18934 10.8869 9.49492 11.1859 9.70193C11.4882 9.90565 11.871 10.0075 12.3343 10.0075Z" fill="black"/>
<path d="M1.8264 0.780518L4.82309 9.27772H4.94138L7.93807 0.780518H9.21955L5.51312 10.8746H4.25136L0.544922 0.780518H1.8264Z" fill="black"/>
</svg>
