<svg width="44" height="43" viewBox="0 0 44 43" fill="none" xmlns="http://www.w3.org/2000/svg">
<path d="M22.3931 4.02673L38.3775 10.4204C38.9991 10.6691 39.4964 11.415 39.4964 12.0721V17.9686C39.4964 18.9454 38.6972 19.7447 37.7204 19.7447H5.75163C4.7748 19.7447 3.97559 18.9454 3.97559 17.9686V12.0721C3.97559 11.415 4.47289 10.6691 5.0945 10.4204L21.0789 4.02673C21.4341 3.88465 22.0379 3.88465 22.3931 4.02673Z" stroke="#141522" stroke-width="2.66406" stroke-miterlimit="10" stroke-linecap="round" stroke-linejoin="round"/>
<path d="M39.4964 39.2812H3.97559V33.953C3.97559 32.9762 4.7748 32.177 5.75163 32.177H37.7204C38.6972 32.177 39.4964 32.9762 39.4964 33.953V39.2812Z" stroke="#141522" stroke-width="2.66406" stroke-miterlimit="10" stroke-linecap="round" stroke-linejoin="round"/>
<path d="M7.52734 32.1769V19.7446" stroke="#141522" stroke-width="2.66406" stroke-miterlimit="10" stroke-linecap="round" stroke-linejoin="round"/>
<path d="M14.6318 32.1769V19.7446" stroke="#141522" stroke-width="2.66406" stroke-miterlimit="10" stroke-linecap="round" stroke-linejoin="round"/>
<path d="M21.7363 32.1769V19.7446" stroke="#141522" stroke-width="2.66406" stroke-miterlimit="10" stroke-linecap="round" stroke-linejoin="round"/>
<path d="M28.8398 32.1769V19.7446" stroke="#141522" stroke-width="2.66406" stroke-miterlimit="10" stroke-linecap="round" stroke-linejoin="round"/>
<path d="M35.9443 32.1769V19.7446" stroke="#141522" stroke-width="2.66406" stroke-miterlimit="10" stroke-linecap="round" stroke-linejoin="round"/>
<path d="M2.19922 39.281H41.2721" stroke="#141522" stroke-width="2.66406" stroke-miterlimit="10" stroke-linecap="round" stroke-linejoin="round"/>
<path d="M21.7363 15.3044C23.2076 15.3044 24.4004 14.1117 24.4004 12.6404C24.4004 11.1691 23.2076 9.97632 21.7363 9.97632C20.265 9.97632 19.0723 11.1691 19.0723 12.6404C19.0723 14.1117 20.265 15.3044 21.7363 15.3044Z" stroke="#141522" stroke-width="2.66406" stroke-miterlimit="10" stroke-linecap="round" stroke-linejoin="round"/>
</svg>
