<svg width="15" height="15" viewBox="0 0 15 15" fill="none" xmlns="http://www.w3.org/2000/svg">
<path d="M12.596 3.91095C10.6981 3.72287 8.78873 3.62598 6.8851 3.62598C5.7566 3.62598 4.62811 3.68297 3.49961 3.79696L2.33691 3.91095" stroke="#EB5757" stroke-width="0.854922" stroke-linecap="round" stroke-linejoin="round"/>
<path d="M5.47168 3.33532L5.59707 2.58869C5.68826 2.04724 5.75665 1.64258 6.71987 1.64258H8.21313C9.17634 1.64258 9.25044 2.07004 9.33593 2.59439L9.46132 3.33532" stroke="#EB5757" stroke-width="0.854922" stroke-linecap="round" stroke-linejoin="round"/>
<path d="M11.3708 5.71216L11.0003 11.4515C10.9376 12.3464 10.8863 13.0417 9.29618 13.0417H5.63711C4.04696 13.0417 3.99566 12.3464 3.93297 11.4515L3.5625 5.71216" stroke="#EB5757" stroke-width="0.854922" stroke-linecap="round" stroke-linejoin="round"/>
<path d="M6.51465 9.90674H8.41258" stroke="#EB5757" stroke-width="0.854922" stroke-linecap="round" stroke-linejoin="round"/>
<path d="M6.04102 7.62695H8.89076" stroke="#EB5757" stroke-width="0.854922" stroke-linecap="round" stroke-linejoin="round"/>
</svg>
